<svg xmlns="http://www.w3.org/2000/svg" width="210" height="50.454" viewBox="0 0 210 50.454">
  <g id="likeshop" transform="translate(-2540 -409)">
    <rect id="矩形_8133" data-name="矩形 8133" width="210" height="50.454" transform="translate(2540 409)" fill="#101010" opacity="0"/>
    <g id="组_13962" data-name="组 13962" transform="translate(2564.546 418.927)">
      <path id="路径_23969" data-name="路径 23969" d="M-2420.7,1824.065a7.548,7.548,0,0,0,.042-.8v-2.743a8.151,8.151,0,0,0-8.436-7.836h-2.954a8.157,8.157,0,0,0-8.438,7.836V1835.8a.416.416,0,0,0,.426.4h5.2v-.283h0v-11.756h0v-3.635a2.718,2.718,0,0,1,2.813-2.612h2.952a2.717,2.717,0,0,1,2.814,2.612v2.743a2.719,2.719,0,0,1-2.814,2.613h-2.525a.413.413,0,0,0-.425.4v4.435a.409.409,0,0,0,.425.393h2.529a8.308,8.308,0,0,0,8.265-6.256c.021-.095.03-.195.048-.292C-2420.749,1824.382-2420.721,1824.223-2420.7,1824.065Z" transform="translate(2581.568 -1805.596)" fill="#315df8"/>
      <path id="路径_23963" data-name="路径 23963" d="M-2500.7,1820.457l-1.224,3.407h-9.322a.408.408,0,0,0-.423.394v.031a3.313,3.313,0,0,0,1.15,2.1.573.573,0,0,0,.11.074,6.189,6.189,0,0,0,3.431.726h5.872a.4.4,0,0,1,.42.391.373.373,0,0,1-.019.144l-1.225,3.414h-5.643a14.457,14.457,0,0,1-3.747-.4,8.536,8.536,0,0,1-2.716-1.308,9.05,9.05,0,0,1-3.53-7.771,9.486,9.486,0,0,1,1.863-5.838,7.108,7.108,0,0,1,3.054-2.42,12.714,12.714,0,0,1,4.674-.721h6.865a.4.4,0,0,1,.417.392.335.335,0,0,1-.018.142l-1.224,3.409h-5.638a5.007,5.007,0,0,0-2.974.657.629.629,0,0,0-.13.1,3.726,3.726,0,0,0-.991,2.11.4.4,0,0,0,.368.424.294.294,0,0,0,.046,0h10.161a.405.405,0,0,1,.415.4A.4.4,0,0,1-2500.7,1820.457Z" transform="translate(2568.571 -1805.597)" fill="#315df8"/>
      <g id="组_13929" data-name="组 13929" transform="translate(16.991 0.002)">
        <path id="路径_23963-2" data-name="路径 23963-2" d="M-2546.051,1813.737h4.765a.425.425,0,0,1,.452.4v17.606a.426.426,0,0,1-.444.407h-4.773a.426.426,0,0,1-.45-.4v-17.609a.425.425,0,0,1,.444-.406Zm-.45-2.518v-4.156a.426.426,0,0,1,.443-.407h4.772a.428.428,0,0,1,.452.4v4.165a.426.426,0,0,1-.444.407h-4.773a.426.426,0,0,1-.45-.4v-.009Z" transform="translate(2546.501 -1806.655)" fill="#315df8"/>
      </g>
      <g id="组_13954" data-name="组 13954" transform="translate(28.318 0.005)">
        <path id="路径_23964" data-name="路径 23964" d="M-2530.885,1819.92l6.342-7.24h6.063a.424.424,0,0,1,.43.42.421.421,0,0,1-.106.287l-7.84,8.2,7.52,8.818a.427.427,0,0,1-.067.6.429.429,0,0,1-.271.092h-6.135l-6.007-7.384A2.879,2.879,0,0,1-2530.885,1819.92Z" transform="translate(2537.786 -1805.601)" fill="#315df8"/>
        <path id="路径_23963-3" data-name="路径 23963-3" d="M-2531.552,1807.075c-.084,13.572.162,17.686.012,24.668a.426.426,0,0,1-.425.407h-4.478a.412.412,0,0,1-.423-.4v-24.682a.415.415,0,0,1,.422-.406h4.469A.424.424,0,0,1-2531.552,1807.075Z" transform="translate(2536.867 -1806.658)" fill="#315df8"/>
      </g>
      <g id="组_13944" data-name="组 13944" transform="translate(117.559 7.077)">
        <path id="路径_23973" data-name="路径 23973" d="M-2450.155,1831.092h-2.8a7.92,7.92,0,0,1-8-7.835v-2.743a7.921,7.921,0,0,1,8-7.835h2.8a7.922,7.922,0,0,1,8.005,7.835v2.743A7.921,7.921,0,0,1-2450.155,1831.092Zm-2.8-13.188a2.638,2.638,0,0,0-2.668,2.611v2.743a2.636,2.636,0,0,0,2.668,2.611h2.8a2.639,2.639,0,0,0,2.67-2.611v-2.743a2.639,2.639,0,0,0-2.67-2.611Z" transform="translate(2460.961 -1812.673)" fill="#315df8"/>
      </g>
      <path id="路径_23972" data-name="路径 23972" d="M-2480.844,1813.218l-1.118,3.142a.425.425,0,0,1-.413.271h-8.215a9.2,9.2,0,0,0-2.179.151,1.357,1.357,0,0,0-.962,1.47,1.653,1.653,0,0,0,.922,1.508,7.071,7.071,0,0,0,2.723.3h3.311a9.086,9.086,0,0,1,5.025,1.206,4.485,4.485,0,0,1,2.053,4,5.92,5.92,0,0,1-1.258,3.659,4.286,4.286,0,0,1-2.231,1.735,16.49,16.49,0,0,1-4.427.416h-11.009a.4.4,0,0,1-.428-.369.384.384,0,0,1,.015-.141l1.117-3.142a.435.435,0,0,1,.415-.271h8.3q1.841,0,2.513-.039a1.463,1.463,0,0,0,1.52-1.4c0-.048,0-.094-.009-.142a1.532,1.532,0,0,0-1.007-1.547,7.67,7.67,0,0,0-2.428-.227h-3.4a15.807,15.807,0,0,1-3.073-.227,5.789,5.789,0,0,1-2-.83,4.992,4.992,0,0,1-1.782-1.974,5.836,5.836,0,0,1-.648-2.7,5.133,5.133,0,0,1,2.18-4.346.545.545,0,0,1,.083-.052,8.216,8.216,0,0,1,4.608-.959h11.385a.4.4,0,0,1,.43.37A.378.378,0,0,1-2480.844,1813.218Z" transform="translate(2571.748 -1805.595)" fill="#315df8"/>
      <g id="组_13953" data-name="组 13953" transform="translate(96.306 0.002)">
        <path id="路径_23976" data-name="路径 23976" d="M-2473.724,1807.082a.433.433,0,0,0-.439-.427h-4.434a.435.435,0,0,0-.442.424v24.646a.433.433,0,0,0,.44.425h4.435a.431.431,0,0,0,.439-.423v0" transform="translate(2479.039 -1806.655)" fill="#315df8"/>
        <path id="减去_160" data-name="减去 160" d="M-2462.4,1831.09h-4.815a.415.415,0,0,1-.424-.4V1820.57a2.738,2.738,0,0,0-2.833-2.63h-4.249v-5.261h5.664a6.856,6.856,0,0,1,7.084,6.576V1830.7a.408.408,0,0,1-.425.387Z" transform="translate(2479.796 -1805.598)" fill="#315df8" opacity="0.998" style="isolation: isolate"/>
      </g>
      <path id="路径_23963-4" data-name="路径 23963-4" d="M-2560.517,1806.654h4.746a.412.412,0,0,1,.425.4v13.927q.119,2.714.238,3.591a2.887,2.887,0,0,0,1.744,2.388,14.544,14.544,0,0,0,5.155.63h-.271v4.546h-.322a29.068,29.068,0,0,1-6.146-.459,7.457,7.457,0,0,1-5.553-5.348,22.753,22.753,0,0,1-.437-5.348v-13.917A.425.425,0,0,1-2560.517,1806.654Z" transform="translate(2560.953 -1806.654)" fill="#315df8"/>
    </g>
  </g>
</svg>
