<?xml version="1.0" encoding="utf-8"?>
<!-- Generator: Adobe Illustrator 25.0.0, SVG Export Plug-In . SVG Version: 6.00 Build 0)  -->
<svg version="1.1" id="图层_1" xmlns="http://www.w3.org/2000/svg" xmlns:xlink="http://www.w3.org/1999/xlink" x="0px" y="0px"
	 viewBox="0 0 531.69 198.43" style="enable-background:new 0 0 531.69 198.43;" xml:space="preserve">
<style type="text/css">
	.st0{fill:#3C60FF;}
</style>
<path class="st0" d="M166.29,92.34c-1.19-18.77-10.34-35.36-24.11-46.46c-11.15-8.99-25.34-14.38-40.79-14.38
	c-0.55,0-1.09,0.01-1.63,0.02c-3.32,0.08-6.57,0.41-9.75,0.98c-30.49,5.38-53.65,32-53.65,64.04c0,1.87,0.08,3.73,0.24,5.57
	c2.5,29.51,24.7,53.4,53.41,58.47c2.38,0.42,4.8,0.72,7.26,0.86c0.83,0.05,1.66,0.09,2.5,0.11c0.54,0.01,1.08,0.02,1.63,0.02
	c34.04,0,61.97-26.16,64.79-59.46c0.16-1.83,0.24-3.69,0.24-5.57C166.43,95.12,166.38,93.72,166.29,92.34z M90.02,124.84
	c-0.26,0.01-0.53,0.01-0.79,0.01c-14.56,0-26.88-9.57-31.03-22.76c-0.97-3.08-1.49-6.35-1.49-9.75c0-17.95,14.56-32.52,32.51-32.52
	c0.26,0,0.53,0,0.79,0.01c3.41,0.08,6.69,0.68,9.75,1.74c6.5,2.22,12.06,6.45,15.97,11.94c1.98,2.78,3.54,5.9,4.57,9.25
	c0.94,3.03,1.44,6.24,1.44,9.58h-9.75c0-2.18-0.31-4.29-0.88-6.28c-0.92-3.23-2.55-6.17-4.69-8.64c-1.86-2.14-4.12-3.93-6.65-5.25
	c-2.93-1.54-6.24-2.46-9.75-2.58c-0.26-0.01-0.52-0.01-0.79-0.01c-12.57,0-22.76,10.19-22.76,22.76c0,3.49,0.79,6.8,2.19,9.75
	c3.65,7.69,11.49,13.01,20.57,13.01c0.27,0,0.53-0.01,0.79-0.01V124.84z M145.72,106.92c-3.35,10.5-13.18,18.09-24.78,18.09
	c-3.13,0-6.13-0.55-8.91-1.57c-2.18-0.8-4.24-1.88-6.11-3.21c-2.38-1.68-4.47-3.76-6.16-6.13c-0.28-0.39-0.55-0.79-0.81-1.2
	c-2.03-3.2-3.38-6.87-3.85-10.82h9.87c0.33,1.71,0.92,3.32,1.74,4.8c1.61,2.91,4.09,5.26,7.09,6.72c0.57,0.28,1.15,0.53,1.76,0.73
	c1.68,0.6,3.49,0.92,5.37,0.92c7.92,0,14.52-5.67,15.96-13.17c0.2-1,0.3-2.04,0.3-3.09c0-2.37-0.51-4.63-1.43-6.67
	c-1.66-3.71-4.68-6.68-8.43-8.28l3.54-9.1c7.43,3.08,13.13,9.49,15.21,17.38c0.44,1.64,0.72,3.34,0.81,5.09
	c0.04,0.52,0.05,1.05,0.05,1.58c0,1.05-0.07,2.07-0.18,3.09C146.58,103.76,146.22,105.38,145.72,106.92z"/>
<g>
	<g>
		<rect x="197.29" y="50.46" class="st0" width="94.12" height="6.34"/>
	</g>
	<g>
		<path class="st0" d="M203.31,143.72v-6.34c6.49,0,11.77-5.28,11.77-11.77V53.63h6.34v71.98
			C221.42,135.59,213.3,143.72,203.31,143.72z"/>
	</g>
	<g>
		<path class="st0" d="M289.49,121.27h-6.34v-38.2c0-5.06-4.12-9.18-9.18-9.18H254.6c-5.06,0-9.18,4.12-9.18,9.18v38.2h-6.34v-38.2
			c0-8.55,6.96-15.51,15.51-15.51h19.38c8.55,0,15.51,6.96,15.51,15.51V121.27z"/>
	</g>
	<g>
		<rect x="261.12" y="53.63" class="st0" width="6.34" height="17.09"/>
	</g>
	<g>
		<path class="st0" d="M240.43,143.84h-3.34v-6.34h3.34c6.3,0,12.9-3.56,15.35-8.29c3.49-6.71,5.33-14.25,5.33-21.81V81.27h6.34
			v26.13c0,8.58-2.09,17.13-6.05,24.74C257.42,139.82,247.83,143.84,240.43,143.84z"/>
	</g>
	<g>
		<path class="st0" d="M291.48,143.84h-3.34c-7.4,0-16.98-4.02-20.98-11.7c-3.96-7.61-6.05-16.16-6.05-24.74h6.34
			c0,7.56,1.84,15.1,5.33,21.81c2.46,4.73,9.06,8.29,15.35,8.29h3.34V143.84z"/>
	</g>
	<g>
		<rect x="308.07" y="57.89" class="st0" width="42.87" height="6.34"/>
	</g>
	<g>
		<rect x="327.05" y="44.89" class="st0" width="6.34" height="61.38"/>
	</g>
	<g>
		
			<rect x="299.65" y="84.08" transform="matrix(0.11 -0.9939 0.9939 0.11 194.7608 392.0006)" class="st0" width="33.26" height="6.34"/>
	</g>
	<g>
		
			<rect x="340.99" y="70.62" transform="matrix(0.9939 -0.11 0.11 0.9939 -7.5075 38.3801)" class="st0" width="6.34" height="33.26"/>
	</g>
	<g>
		<path class="st0" d="M386.9,107.14h-15.15c-7.52,0-13.64-6.12-13.64-13.63V63.9c0-7.52,6.12-13.64,13.64-13.64h15.15
			c7.52,0,13.64,6.12,13.64,13.64v29.61C400.54,101.03,394.42,107.14,386.9,107.14z M371.75,56.6c-4.02,0-7.3,3.27-7.3,7.3v29.61
			c0,4.02,3.27,7.3,7.3,7.3h15.15c4.02,0,7.3-3.27,7.3-7.3V63.9c0-4.02-3.27-7.3-7.3-7.3H371.75z"/>
	</g>
	<g>
		<g>
			<rect x="370.43" y="67.2" class="st0" width="17.8" height="6.34"/>
		</g>
		<g>
			<rect x="370.43" y="83.87" class="st0" width="17.8" height="6.34"/>
		</g>
	</g>
	<g>
		<path class="st0" d="M386.7,143.84h-37.98c-8,0-14.5-6.51-14.5-14.5V113.2h6.34v16.13c0,4.5,3.66,8.17,8.17,8.17h37.98V143.84z"/>
	</g>
	<g>
		
			<rect x="306.41" y="124.18" transform="matrix(0.2529 -0.9675 0.9675 0.2529 114.4986 402.9877)" class="st0" width="23.57" height="6.34"/>
	</g>
	<g>
		<rect x="355.58" y="116.2" class="st0" width="20.52" height="6.34"/>
	</g>
	<g>
		
			<rect x="393.34" y="114.56" transform="matrix(0.9556 -0.2946 0.2946 0.9556 -19.7967 122.424)" class="st0" width="6.34" height="24.75"/>
	</g>
	<g>
		<rect x="429.51" y="50.46" class="st0" width="71.83" height="6.34"/>
	</g>
	<g>
		<rect x="420.02" y="87.44" class="st0" width="90.81" height="6.34"/>
	</g>
	<g>
		<path class="st0" d="M497.12,143.64h-56c-4.5,0-8.59-2.29-10.94-6.14c-2.35-3.84-2.52-8.53-0.46-12.53l17.68-35.81l5.64,2.89
			l-17.68,35.81c-1.04,2.02-0.95,4.39,0.23,6.33c1.19,1.94,3.25,3.1,5.53,3.1h56c1.51,0,2.88-0.71,3.74-1.95
			c0.81-1.16,1.03-2.57,0.63-3.91l-7.8-12.34l5.36-3.39l8.18,12.94l0.12,0.31c1.24,3.34,0.76,7.08-1.28,10.01
			C504.03,141.9,500.68,143.64,497.12,143.64z"/>
	</g>
</g>
</svg>
